<svg
  width="33"
  height="30"
  viewBox="0 0 33 30"
  fill="none"
  xmlns="http://www.w3.org/2000/svg"
>
    <path
    d="M24.7554 21.407C24.5053 21.4075 24.263 21.3204 24.0704 21.1608L19.2324 17.1256H17.263C14.992 17.1256 12.814 16.2234 11.2082 14.6176C9.60234 13.0118 8.7002 10.8338 8.7002 8.56279C8.7002 6.2918 9.60234 4.11382 11.2082 2.50798C12.814 0.902149 14.992 0 17.263 0H23.6851C25.7649 0.00593883 27.7715 0.768661 29.3302 2.14575C30.8888 3.52284 31.893 5.42015 32.1551 7.48341C32.4173 9.54666 31.9195 11.6348 30.7548 13.3579C29.5901 15.0811 27.838 16.3214 25.8258 16.8473V20.3366C25.8263 20.5414 25.7681 20.7419 25.658 20.9146C25.548 21.0872 25.3908 21.2247 25.205 21.3106C25.0639 21.3749 24.9105 21.4078 24.7554 21.407ZM17.263 2.1407C15.5597 2.1407 13.9263 2.81731 12.7219 4.02169C11.5175 5.22606 10.8409 6.85955 10.8409 8.56279C10.8409 10.266 11.5175 11.8995 12.7219 13.1039C13.9263 14.3083 15.5597 14.9849 17.263 14.9849H19.6178C19.8678 14.9844 20.1102 15.0715 20.3028 15.2311L23.6851 18.0461V15.9696C23.6825 15.7099 23.7745 15.4581 23.9439 15.2612C24.1132 15.0642 24.3484 14.9356 24.6056 14.8993C26.1873 14.64 27.615 13.7987 28.608 12.5405C29.6011 11.2823 30.0878 9.69827 29.9724 8.09957C29.8571 6.50086 29.1481 5.00308 27.9847 3.90048C26.8213 2.79788 25.2877 2.17018 23.6851 2.1407H17.263Z"
    fill="#C0FF00"
  />
    <path
    d="M21.5445 7.49243H19.4038V9.63313H21.5445V7.49243Z"
    fill="#C0FF00"
  />
    <path
    d="M16.1925 7.49243H14.0518V9.63313H16.1925V7.49243Z"
    fill="#C0FF00"
  />
    <path
    d="M26.8961 7.49243H24.7554V9.63313H26.8961V7.49243Z"
    fill="#C0FF00"
  />
    <path
    d="M7.62993 29.9697C7.47487 29.9705 7.32149 29.9376 7.18038 29.8734C6.99459 29.7874 6.83736 29.6499 6.72732 29.4773C6.61729 29.3046 6.55907 29.1041 6.55958 28.8993V25.41C4.85652 24.9563 3.33495 23.9881 2.20254 22.6375C1.07013 21.287 0.382038 19.6199 0.232185 17.8639C0.0823328 16.1078 0.478015 14.3482 1.36523 12.8254C2.25245 11.3025 3.58797 10.0905 5.18953 9.35476C5.3188 9.28664 5.46065 9.24571 5.60633 9.23448C5.75202 9.22326 5.89846 9.24199 6.03663 9.28951C6.17481 9.33703 6.30179 9.41234 6.40976 9.5108C6.51772 9.60925 6.60439 9.72877 6.66441 9.86199C6.72443 9.99521 6.75654 10.1393 6.75876 10.2854C6.76098 10.4315 6.73326 10.5765 6.67731 10.7115C6.62137 10.8465 6.53837 10.9686 6.43345 11.0703C6.32852 11.172 6.20389 11.2511 6.06722 11.3028C4.80413 11.8755 3.76037 12.8417 3.09202 14.0569C2.42368 15.2721 2.16667 16.671 2.35942 18.0444C2.55218 19.4178 3.18435 20.6919 4.16139 21.6761C5.13843 22.6604 6.40784 23.3019 7.77978 23.5048C8.03696 23.5411 8.27215 23.6698 8.44151 23.8667C8.61086 24.0636 8.70284 24.3154 8.70028 24.5751V26.6516L12.0826 23.8366C12.2691 23.6615 12.5121 23.559 12.7676 23.5476H15.1224C15.9795 23.5492 16.8282 23.3774 17.6173 23.0427C18.4064 22.7079 19.1196 22.217 19.7142 21.5996C19.9129 21.3952 20.1847 21.2781 20.4697 21.2741C20.6108 21.2721 20.751 21.2979 20.8821 21.3501C21.0133 21.4023 21.1329 21.4798 21.2341 21.5781C21.3353 21.6765 21.4161 21.7939 21.472 21.9235C21.5278 22.0532 21.5576 22.1925 21.5596 22.3337C21.5615 22.4748 21.5357 22.6149 21.4835 22.7461C21.4314 22.8772 21.3539 22.9968 21.2555 23.098C20.4579 23.9174 19.5043 24.5688 18.451 25.0136C17.3976 25.4585 16.2658 25.6879 15.1224 25.6883H13.1529L8.31495 29.7235C8.12239 29.8831 7.88002 29.9702 7.62993 29.9697Z"
    fill="#C0FF00"
  />
    </svg>
