<svg
  width="25"
  height="27"
  viewBox="0 0 25 27"
  fill="none"
  xmlns="http://www.w3.org/2000/svg"
>
    <path
    d="M1.30114 22.4689C0.964595 22.3603 0.670807 22.1485 0.461476 21.8635C0.28367 21.6097 0.174681 21.3142 0.145142 21.0058C0.115603 20.6974 0.166524 20.3866 0.292937 20.1037L2.98455 13.7296L0.378811 7.44887C0.261807 7.1629 0.220352 6.85164 0.258431 6.54502C0.29651 6.2384 0.412843 5.94673 0.596241 5.69807C0.769996 5.45413 1.00399 5.25936 1.27542 5.13276C1.54685 5.00616 1.84645 4.95204 2.14501 4.97569L8.71319 5.49364L13.7186 0.914149C13.9431 0.704631 14.2194 0.558816 14.519 0.491759C14.8186 0.424702 15.1307 0.438832 15.4231 0.532692C15.7154 0.626551 15.9774 0.796737 16.182 1.02568C16.3866 1.25462 16.5264 1.53403 16.5869 1.83504L17.9783 8.51245L23.6204 11.9147C23.8769 12.0693 24.089 12.2877 24.236 12.5486C24.383 12.8096 24.4599 13.1042 24.4592 13.4037C24.4636 13.7126 24.3884 14.0175 24.2409 14.289C24.0933 14.5604 23.8784 14.7894 23.6168 14.9538L17.8789 18.5116L16.357 25.2612C16.2895 25.567 16.1431 25.8498 15.9323 26.0814C15.7215 26.313 15.4537 26.4853 15.1555 26.5811C14.8731 26.6733 14.5714 26.6891 14.2809 26.6269C13.9904 26.5647 13.7216 26.4267 13.5017 26.2269L8.59049 21.7867L2.02045 22.5408C1.7783 22.5692 1.53287 22.5447 1.30114 22.4689ZM14.9533 2.10597L9.59692 6.9528C9.51171 7.03128 9.41123 7.09132 9.30175 7.12917C9.19227 7.16702 9.07615 7.18185 8.96067 7.17275L2.06488 6.62916C1.99109 6.69385 1.96764 6.73935 2.01087 6.79742L4.70798 13.3991C4.74972 13.5015 4.77089 13.611 4.77028 13.7215C4.76968 13.832 4.74732 13.9413 4.70448 14.0432L1.87535 20.7354C1.75952 20.8485 1.8156 20.8665 1.8156 20.8665L8.76845 20.0762C8.88665 20.0629 9.00631 20.0749 9.11956 20.1112C9.2328 20.1476 9.33705 20.2076 9.42544 20.2871L14.6348 24.9822C14.6348 24.9822 14.7069 25.0054 14.7324 24.8987L16.3276 17.8102C16.3521 17.7025 16.3976 17.6006 16.4614 17.5104C16.5252 17.4202 16.6062 17.3434 16.6997 17.2845L22.7437 13.4892C22.7584 13.4749 22.7693 13.4571 22.7756 13.4376C22.7819 13.418 22.7833 13.3973 22.7797 13.377L16.8044 9.69105C16.7053 9.63124 16.6195 9.55158 16.5525 9.45708C16.4855 9.36257 16.4387 9.25526 16.4151 9.14185L14.9533 2.10597Z"
    fill="#C0FF00"
  />
    </svg>
