<svg
  width="26"
  height="26"
  viewBox="0 0 26 26"
  fill="none"
  xmlns="http://www.w3.org/2000/svg"
>
    <path
    d="M12.9553 25.2934C10.4588 25.2934 8.01843 24.5531 5.94272 23.1662C3.867 21.7792 2.24917 19.8079 1.29382 17.5015C0.338477 15.1951 0.0885142 12.6571 0.575546 10.2087C1.06258 7.76019 2.26473 5.51112 4.02998 3.74587C5.79524 1.98061 8.04431 0.77846 10.4928 0.291428C12.9413 -0.195604 15.4792 0.0543583 17.7856 1.00971C20.092 1.96505 22.0633 3.58288 23.4503 5.6586C24.8372 7.73432 25.5775 10.1747 25.5775 12.6711C25.5775 16.0188 24.2477 19.2293 21.8805 21.5964C19.5134 23.9636 16.3029 25.2934 12.9553 25.2934ZM12.9553 1.73186C10.7917 1.73186 8.67668 2.37344 6.87772 3.57546C5.07877 4.77749 3.67665 6.48597 2.84868 8.48486C2.02071 10.4838 1.80408 12.6833 2.22618 14.8053C2.64827 16.9273 3.69014 18.8765 5.22002 20.4064C6.74991 21.9363 8.6991 22.9781 10.8211 23.4002C12.9431 23.8223 15.1427 23.6057 17.1415 22.7777C19.1404 21.9498 20.8489 20.5476 22.0509 18.7487C23.253 16.9497 23.8945 14.8347 23.8945 12.6711C23.8945 9.76986 22.742 6.98742 20.6905 4.9359C18.639 2.88439 15.8565 1.73186 12.9553 1.73186V1.73186Z"
    fill="#C0FF00"
  />
    <path
    d="M16.5232 17.4339L12.3578 13.2686C12.2798 13.19 12.2181 13.0967 12.1762 12.9942C12.1344 12.8917 12.1131 12.7819 12.1138 12.6711V5.93927H13.7967V12.3261L17.7181 16.239L16.5232 17.4339Z"
    fill="#C0FF00"
  />
    </svg>
