<svg
  width="191"
  height="50"
  viewBox="0 0 191 50"
  fill="none"
  xmlns="http://www.w3.org/2000/svg"
>
    <path
    d="M12.9553 30.2934C10.4588 30.2934 8.01843 29.5531 5.94272 28.1662C3.867 26.7792 2.24917 24.8079 1.29382 22.5015C0.338477 20.1951 0.0885142 17.6571 0.575546 15.2087C1.06258 12.7602 2.26473 10.5111 4.02998 8.74587C5.79524 6.98061 8.04431 5.77846 10.4928 5.29143C12.9413 4.8044 15.4792 5.05436 17.7856 6.00971C20.092 6.96505 22.0633 8.58288 23.4503 10.6586C24.8372 12.7343 25.5775 15.1747 25.5775 17.6711C25.5775 21.0188 24.2477 24.2293 21.8805 26.5964C19.5134 28.9636 16.3029 30.2934 12.9553 30.2934ZM12.9553 6.73186C10.7917 6.73186 8.67668 7.37344 6.87772 8.57546C5.07877 9.77749 3.67665 11.486 2.84868 13.4849C2.02071 15.4838 1.80408 17.6833 2.22618 19.8053C2.64827 21.9273 3.69014 23.8765 5.22002 25.4064C6.74991 26.9363 8.6991 27.9781 10.8211 28.4002C12.9431 28.8223 15.1427 28.6057 17.1415 27.7777C19.1404 26.9498 20.8489 25.5476 22.0509 23.7487C23.253 21.9497 23.8945 19.8347 23.8945 17.6711C23.8945 14.7699 22.742 11.9874 20.6905 9.9359C18.639 7.88439 15.8565 6.73186 12.9553 6.73186V6.73186Z"
    fill="#C0FF00"
  />
    <path
    d="M16.5232 22.4339L12.3578 18.2686C12.2798 18.19 12.2181 18.0967 12.1762 17.9942C12.1344 17.8917 12.1131 17.7819 12.1138 17.6711V10.9393H13.7967V17.3261L17.7181 21.239L16.5232 22.4339Z"
    fill="#C0FF00"
  />
    <path
    d="M56.3011 43.4689C55.9646 43.3603 55.6708 43.1485 55.4615 42.8635C55.2837 42.6097 55.1747 42.3142 55.1451 42.0058C55.1156 41.6974 55.1665 41.3866 55.2929 41.1037L57.9845 34.7296L55.3788 28.4489C55.2618 28.1629 55.2204 27.8516 55.2584 27.545C55.2965 27.2384 55.4128 26.9467 55.5962 26.6981C55.77 26.4541 56.004 26.2594 56.2754 26.1328C56.5468 26.0062 56.8464 25.952 57.145 25.9757L63.7132 26.4936L68.7186 21.9141C68.9431 21.7046 69.2194 21.5588 69.519 21.4918C69.8186 21.4247 70.1307 21.4388 70.4231 21.5327C70.7154 21.6266 70.9774 21.7967 71.182 22.0257C71.3866 22.2546 71.5264 22.534 71.5869 22.835L72.9783 29.5124L78.6204 32.9147C78.8769 33.0693 79.089 33.2877 79.236 33.5486C79.383 33.8096 79.4599 34.1042 79.4592 34.4037C79.4636 34.7126 79.3884 35.0175 79.2409 35.289C79.0933 35.5604 78.8784 35.7894 78.6168 35.9538L72.8789 39.5116L71.357 46.2612C71.2895 46.567 71.1431 46.8498 70.9323 47.0814C70.7215 47.313 70.4537 47.4853 70.1555 47.5811C69.8731 47.6733 69.5714 47.6891 69.2809 47.6269C68.9904 47.5647 68.7216 47.4267 68.5017 47.2269L63.5905 42.7867L57.0204 43.5408C56.7783 43.5692 56.5329 43.5447 56.3011 43.4689ZM69.9533 23.106L64.5969 27.9528C64.5117 28.0313 64.4112 28.0913 64.3017 28.1292C64.1923 28.167 64.0762 28.1819 63.9607 28.1727L57.0649 27.6292C56.9911 27.6938 56.9676 27.7393 57.0109 27.7974L59.708 34.3991C59.7497 34.5015 59.7709 34.611 59.7703 34.7215C59.7697 34.832 59.7473 34.9413 59.7045 35.0432L56.8754 41.7354C56.7595 41.8485 56.8156 41.8665 56.8156 41.8665L63.7684 41.0762C63.8866 41.0629 64.0063 41.0749 64.1196 41.1112C64.2328 41.1476 64.3371 41.2076 64.4254 41.2871L69.6348 45.9822C69.6348 45.9822 69.7069 46.0054 69.7324 45.8987L71.3276 38.8102C71.3521 38.7025 71.3976 38.6006 71.4614 38.5104C71.5252 38.4202 71.6062 38.3434 71.6997 38.2845L77.7437 34.4892C77.7584 34.4749 77.7693 34.4571 77.7756 34.4376C77.7819 34.418 77.7833 34.3973 77.7797 34.377L71.8044 30.6911C71.7052 30.6312 71.6195 30.5516 71.5525 30.4571C71.4855 30.3626 71.4387 30.2553 71.4151 30.1418L69.9533 23.106Z"
    fill="#C0FF00"
  />
    <path
    d="M131.755 21.407C131.505 21.4075 131.263 21.3204 131.07 21.1608L126.232 17.1256H124.263C121.992 17.1256 119.814 16.2234 118.208 14.6176C116.602 13.0118 115.7 10.8338 115.7 8.56279C115.7 6.2918 116.602 4.11382 118.208 2.50798C119.814 0.902149 121.992 0 124.263 0H130.685C132.765 0.00593883 134.772 0.768662 136.33 2.14575C137.889 3.52284 138.893 5.42015 139.155 7.48341C139.417 9.54666 138.92 11.6348 137.755 13.3579C136.59 15.0811 134.838 16.3214 132.826 16.8473V20.3366C132.826 20.5414 132.768 20.7419 132.658 20.9146C132.548 21.0872 132.391 21.2247 132.205 21.3107C132.064 21.3749 131.91 21.4078 131.755 21.407V21.407ZM124.263 2.1407C122.56 2.1407 120.926 2.81731 119.722 4.02169C118.518 5.22606 117.841 6.85955 117.841 8.56279C117.841 10.266 118.518 11.8995 119.722 13.1039C120.926 14.3083 122.56 14.9849 124.263 14.9849H126.618C126.868 14.9844 127.11 15.0715 127.303 15.2311L130.685 18.0461V15.9696C130.683 15.7099 130.774 15.4581 130.944 15.2612C131.113 15.0642 131.348 14.9356 131.606 14.8993C133.187 14.64 134.615 13.7987 135.608 12.5405C136.601 11.2823 137.088 9.69827 136.972 8.09957C136.857 6.50086 136.148 5.00308 134.985 3.90048C133.821 2.79788 132.288 2.17018 130.685 2.1407H124.263Z"
    fill="#C0FF00"
  />
    <path
    d="M128.545 7.49243H126.404V9.63313H128.545V7.49243Z"
    fill="#C0FF00"
  />
    <path
    d="M123.192 7.49243H121.052V9.63313H123.192V7.49243Z"
    fill="#C0FF00"
  />
    <path
    d="M133.896 7.49243H131.755V9.63313H133.896V7.49243Z"
    fill="#C0FF00"
  />
    <path
    d="M114.63 29.9697C114.475 29.9705 114.321 29.9376 114.18 29.8734C113.995 29.7874 113.837 29.6499 113.727 29.4773C113.617 29.3046 113.559 29.1041 113.56 28.8993V25.41C111.857 24.9563 110.335 23.9881 109.203 22.6375C108.07 21.287 107.382 19.6199 107.232 17.8639C107.082 16.1078 107.478 14.3482 108.365 12.8254C109.252 11.3025 110.588 10.0905 112.19 9.35476C112.319 9.28664 112.461 9.24571 112.606 9.23448C112.752 9.22326 112.898 9.24199 113.037 9.28951C113.175 9.33703 113.302 9.41234 113.41 9.5108C113.518 9.60925 113.604 9.72877 113.664 9.86199C113.724 9.99521 113.757 10.1393 113.759 10.2854C113.761 10.4315 113.733 10.5765 113.677 10.7115C113.621 10.8465 113.538 10.9686 113.433 11.0703C113.329 11.172 113.204 11.2511 113.067 11.3028C111.804 11.8755 110.76 12.8417 110.092 14.0569C109.424 15.2721 109.167 16.671 109.359 18.0444C109.552 19.4178 110.184 20.6919 111.161 21.6761C112.138 22.6604 113.408 23.3019 114.78 23.5048C115.037 23.5411 115.272 23.6698 115.442 23.8667C115.611 24.0636 115.703 24.3154 115.7 24.5751V26.6516L119.083 23.8366C119.269 23.6615 119.512 23.559 119.768 23.5476H122.122C122.98 23.5492 123.828 23.3774 124.617 23.0427C125.406 22.7079 126.12 22.217 126.714 21.5996C126.913 21.3952 127.185 21.2781 127.47 21.2741C127.611 21.2721 127.751 21.2979 127.882 21.3501C128.013 21.4023 128.133 21.4798 128.234 21.5781C128.335 21.6765 128.416 21.7939 128.472 21.9235C128.528 22.0532 128.558 22.1925 128.56 22.3337C128.562 22.4748 128.536 22.6149 128.484 22.7461C128.431 22.8772 128.354 22.9968 128.255 23.098C127.458 23.9174 126.504 24.5688 125.451 25.0136C124.398 25.4585 123.266 25.6879 122.122 25.6883H120.153L115.315 29.7235C115.122 29.8831 114.88 29.9702 114.63 29.9697V29.9697Z"
    fill="#C0FF00"
  />
    <path
    d="M176.577 29.9195L182.187 24.3096"
    stroke="#C0FF00"
    stroke-width="2"
    stroke-miterlimit="10"
    stroke-linecap="round"
    stroke-linejoin="round"
  />
    <path
    d="M189.667 20.5696H185.927V16.8297L182.187 20.5696V24.3096H185.927L189.667 20.5696Z"
    stroke="#C0FF00"
    stroke-width="2"
    stroke-miterlimit="10"
    stroke-linecap="round"
    stroke-linejoin="round"
  />
    <path
    d="M176.577 35.5293C179.675 35.5293 182.187 33.0177 182.187 29.9195C182.187 26.8212 179.675 24.3096 176.577 24.3096C173.479 24.3096 170.967 26.8212 170.967 29.9195C170.967 33.0177 173.479 35.5293 176.577 35.5293Z"
    stroke="#C0FF00"
    stroke-width="2"
    stroke-miterlimit="10"
    stroke-linecap="round"
    stroke-linejoin="round"
  />
    <path
    d="M186.862 23.3746C188.077 25.2446 188.732 27.4885 188.732 29.9195C188.732 36.6513 183.309 42.0742 176.577 42.0742C169.845 42.0742 164.422 36.6513 164.422 29.9195C164.422 23.1876 169.845 17.7647 176.577 17.7647C179.008 17.7647 181.252 18.4192 183.122 19.6347"
    stroke="#C0FF00"
    stroke-width="2"
    stroke-miterlimit="10"
    stroke-linecap="round"
    stroke-linejoin="round"
  />
    </svg>
