<svg
  width="375"
  height="113"
  viewBox="0 0 375 113"
  fill="none"
  xmlns="http://www.w3.org/2000/svg"
>
  <g style="mix-blend-mode:overlay" opacity="0.6">
  <path
      d="M316.139 80.3415L285.407 101.04L285.337 100.977L229.356 52.7591L127.049 49.195L58.6688 105.054L58.5953 105.002L-40.5474 34.9926L-40.0963 35.037L80.9148 47.3486L177.38 7.7792L177.447 7.724L177.494 7.76816L367.028 45.7833M367.539 45.8823L367.921 45.9618L367.519 45.9952M316.366 80.1898L367.024 46.0776M229.741 52.7705L266.382 54.0473L285.12 100.479L229.741 52.7705ZM285.471 100.707L266.696 54.192L315.904 80.2131L285.471 100.707ZM316.126 80.0643L266.881 54.0179L366.618 46.063L316.126 80.0643ZM366.205 45.8609L266.456 53.8123L266.361 53.8224L229.455 52.5267L177.865 8.08577L366.205 45.8609ZM177.44 8.03468L229.072 52.5119L127.33 48.9701L177.44 8.03468ZM176.748 8.29268L126.968 48.9519L81.4914 47.3717L176.748 8.29268ZM81.0148 47.5928L126.692 49.1846L58.935 104.527L81.0148 47.5928ZM80.7624 47.5738L58.6051 104.721L-39.6724 35.3263L80.7624 47.5738Z"
      stroke="white"
      stroke-miterlimit="10"
    />
  <path
      d="M320.035 87.0462C318.23 88.1019 316.081 88.3976 314.058 87.8683C312.036 87.339 310.307 86.028 309.251 84.2238C308.196 82.4195 307.9 80.2698 308.429 78.2476C308.959 76.2253 310.27 74.4961 312.074 73.4405C313.331 72.7004 314.768 72.324 316.226 72.3532C317.685 72.3823 319.106 72.8159 320.332 73.6055C321.558 74.3951 322.541 75.5098 323.171 76.8253C323.801 78.1408 324.053 79.6053 323.899 81.0557C323.779 82.2899 323.366 83.4775 322.693 84.5195C322.021 85.5616 321.11 86.4279 320.035 87.0462V87.0462Z"
      fill="white"
    />
  <path
      d="M230.708 55.0857C230.194 55.3869 229.597 55.5163 229.005 55.455C228.266 55.3786 227.588 55.0127 227.119 54.4375C226.65 53.8623 226.427 53.1246 226.501 52.3858C226.545 51.9473 226.692 51.5254 226.93 51.1546C227.168 50.7837 227.49 50.4742 227.871 50.2514C228.384 49.9516 228.978 49.821 229.57 49.878C230.158 49.9374 230.713 50.1813 231.154 50.5749C231.595 50.9685 231.901 51.4916 232.027 52.0694C232.153 52.6472 232.094 53.25 231.856 53.7918C231.619 54.3335 231.217 54.7864 230.707 55.0857H230.708Z"
      fill="white"
    />
  <path
      d="M275.817 33.6231C274.375 34.4689 272.701 34.8358 271.036 34.6712C269.381 34.5015 267.822 33.8129 266.582 32.7037C265.341 31.5945 264.483 30.1216 264.131 28.4955C263.778 26.8694 263.948 25.1734 264.617 23.6499C265.286 22.1264 266.42 20.8534 267.856 20.013C268.75 19.4676 269.744 19.1059 270.78 18.9491C271.816 18.7922 272.873 18.8434 273.889 19.0995C274.904 19.3556 275.859 19.8116 276.697 20.4407C277.534 21.0699 278.238 21.8597 278.767 22.764C279.296 23.6682 279.639 24.6688 279.777 25.7073C279.915 26.7458 279.845 27.8014 279.57 28.8123C279.296 29.8233 278.822 30.7694 278.178 31.5954C277.534 32.4214 276.731 33.1108 275.817 33.6231V33.6231Z"
      fill="white"
    />
  <path
      d="M131.04 55.9697C129.514 56.8583 127.732 57.2071 125.984 56.9599C124.235 56.7126 122.62 55.8838 121.4 54.6069C120.18 53.33 119.425 51.6795 119.257 49.9212C119.09 48.163 119.519 46.3996 120.476 44.915C121.433 43.4305 122.861 42.3114 124.532 41.7381C126.202 41.1648 128.017 41.1706 129.684 41.7547C131.351 42.3387 132.773 43.467 133.72 44.9576C134.667 46.4483 135.085 48.2145 134.906 49.9716C134.783 51.2063 134.369 52.394 133.696 53.4369C133.024 54.4798 132.114 55.3479 131.04 55.9697Z"
      fill="white"
    />
  <path
      d="M23.3233 83.9201C21.8773 84.7665 20.2006 85.1337 18.5332 84.9692C16.4559 84.7506 14.5497 83.7183 13.2316 82.0979C11.9134 80.4776 11.2907 78.4012 11.4996 76.3229C11.6345 74.9807 12.1115 73.6956 12.885 72.5904C13.6584 71.4852 14.7025 70.5969 15.9173 70.0105C17.1321 69.424 18.4771 69.1591 19.8236 69.2409C21.17 69.3227 22.473 69.7486 23.6079 70.4779C24.7427 71.2071 25.6715 72.2153 26.3055 73.406C26.9394 74.5967 27.2573 75.9302 27.2286 77.2789C27.2 78.6275 26.8259 79.9463 26.142 81.109C25.4581 82.2718 24.4874 83.2397 23.3226 83.9201H23.3233Z"
      fill="white"
    />
  <path
      d="M267.995 56.5671C267.367 56.934 266.628 57.0646 265.912 56.9354C265.197 56.8061 264.551 56.4255 264.09 55.8621C263.695 55.3787 263.458 54.7857 263.41 54.1632C263.363 53.5406 263.507 52.9184 263.824 52.3804C264.14 51.8424 264.615 51.4144 265.182 51.1541C265.75 50.8938 266.383 50.8138 266.998 50.9247C267.612 51.0356 268.178 51.3322 268.618 51.7745C269.059 52.2169 269.354 52.7836 269.462 53.3984C269.571 54.0133 269.489 54.6466 269.226 55.2132C268.964 55.7798 268.534 56.2523 267.995 56.5671Z"
      fill="white"
    />
  <path
      d="M62.6557 111.697C61.5816 112.33 60.3728 112.699 59.1284 112.774C57.884 112.849 56.6396 112.628 55.4973 112.129C54.3549 111.63 53.3471 110.867 52.5566 109.903C51.7661 108.939 51.2154 107.801 50.9497 106.583C50.684 105.365 50.7109 104.102 51.0281 102.896C51.3454 101.691 51.9439 100.577 52.7747 99.6479C53.6054 98.7185 54.6447 97.9992 55.8072 97.5492C56.9698 97.0992 58.2225 96.9312 59.4625 97.0591C61.5391 97.2828 63.4436 98.3167 64.7624 99.9364C66.0811 101.556 66.7075 103.631 66.5056 105.709C66.3822 106.941 65.9691 108.125 65.2999 109.166C64.6307 110.206 63.7246 111.074 62.6557 111.697V111.697Z"
      fill="white"
    />
  <path
      d="M181.431 14.681C180.356 15.3148 179.147 15.6847 177.902 15.7603C176.657 15.8359 175.411 15.6151 174.268 15.1161C173.125 14.617 172.116 13.8538 171.325 12.8893C170.534 11.9248 169.983 10.7864 169.717 9.56758C169.451 8.34876 169.479 7.0843 169.796 5.87801C170.114 4.67172 170.714 3.55801 171.545 2.62833C172.377 1.69865 173.417 0.979515 174.581 0.529969C175.745 0.0804229 176.998 -0.0867129 178.239 0.0422896C179.893 0.209174 181.452 0.895012 182.693 2.00167C183.934 3.10833 184.793 4.57909 185.147 6.2035C185.501 7.82791 185.332 9.52272 184.665 11.0454C183.997 12.5681 182.865 13.8407 181.431 14.681V14.681Z"
      fill="white"
    />
  <path
      d="M211.578 58.5989C210.503 59.2328 209.294 59.6028 208.048 59.6784C206.803 59.7541 205.558 59.5333 204.414 59.0342C203.271 58.5351 202.262 57.7719 201.471 56.8073C200.68 55.8427 200.129 54.7042 199.863 53.4853C199.597 52.2664 199.625 51.0018 199.942 49.7955C200.26 48.5891 200.86 47.4753 201.692 46.5456C202.524 45.6159 203.564 44.8968 204.728 44.4473C205.892 43.9978 207.145 43.8308 208.386 43.9599C210.04 44.127 211.599 44.8129 212.84 45.9196C214.081 47.0263 214.939 48.4971 215.294 50.1215C215.648 51.7459 215.479 53.4406 214.811 54.9633C214.144 56.486 213.012 57.7586 211.578 58.5989Z"
      fill="white"
    />
  <path
      d="M286.506 102.744C286.087 102.991 285.598 103.089 285.117 103.023C284.636 102.957 284.191 102.731 283.854 102.381C283.517 102.031 283.308 101.578 283.261 101.095C283.213 100.612 283.33 100.126 283.592 99.7178C283.855 99.309 284.247 99.0006 284.706 98.8424C285.165 98.6841 285.664 98.6852 286.122 98.8454C286.581 99.0057 286.972 99.3158 287.232 99.7256C287.493 100.135 287.607 100.621 287.558 101.104C287.524 101.441 287.412 101.766 287.229 102.051C287.046 102.336 286.798 102.573 286.506 102.744V102.744Z"
      fill="white"
    />
  <path
      d="M371.054 52.7159C369.526 53.6152 367.739 53.9731 365.982 53.7319C364.225 53.4908 362.6 52.6646 361.37 51.3867C360.141 50.1088 359.377 48.4539 359.204 46.6889C359.03 44.9239 359.457 43.152 360.414 41.659C361.371 40.1661 362.804 39.0393 364.48 38.4605C366.156 37.8817 367.979 37.8847 369.653 38.4689C371.328 39.0532 372.756 40.1847 373.709 41.6808C374.661 43.1769 375.082 44.9502 374.902 46.7146C374.782 47.9483 374.371 49.1357 373.702 50.1791C373.033 51.2225 372.125 52.092 371.054 52.7159V52.7159Z"
      fill="white"
    />
  <path
      d="M84.9168 54.2697C83.1147 55.2843 80.9861 55.5503 78.9898 55.0104C76.9934 54.4705 75.289 53.1679 74.244 51.3833C73.1989 49.5987 72.8968 47.475 73.4027 45.4697C73.9086 43.4645 75.1821 41.7382 76.9487 40.663C77.8428 40.1188 78.8364 39.758 79.8714 39.6018C80.9065 39.4455 81.9623 39.497 82.9773 39.753C83.9922 40.0091 84.946 40.4647 85.7831 41.0933C86.6201 41.7218 87.3237 42.5107 87.8526 43.414C88.3816 44.3173 88.7254 45.3169 88.864 46.3544C89.0027 47.3919 88.9333 48.4467 88.66 49.4572C88.3868 50.4676 87.915 51.4136 87.2724 52.2398C86.6297 53.0661 85.8289 53.7561 84.9168 54.2697V54.2697Z"
      fill="white"
    />
  </g>
  </svg>
