<svg
  width="375"
  height="118"
  viewBox="0 0 375 118"
  fill="none"
  xmlns="http://www.w3.org/2000/svg"
>
  <g style="mix-blend-mode:overlay" opacity="0.12">
  <path
      d="M343.012 33.6826L311.109 12.1954L311.036 12.2608L252.923 62.3158L146.718 66.0157L75.7325 8.02889L75.6562 8.08259L-27.2637 80.7593L-26.7955 80.7131L98.826 67.9324L198.966 109.009L199.035 109.067L199.085 109.021L395.84 69.5574M396.37 69.4546L396.767 69.3721L396.35 69.3374M343.247 33.8401L395.836 69.2519M253.323 62.304L291.36 60.9786L310.811 12.7782L253.323 62.304ZM311.175 12.5408L291.686 60.8283L342.768 33.8158L311.175 12.5408ZM342.998 33.9704L291.878 61.009L395.414 69.267L342.998 33.9704ZM394.985 69.4769L291.436 61.2225L291.338 61.212L253.025 62.5571L199.47 108.691L394.985 69.4769ZM199.028 108.744L252.628 62.5725L147.01 66.2491L199.028 108.744ZM198.31 108.476L146.634 66.2681L99.4246 67.9085L198.31 108.476ZM98.9298 67.679L146.347 66.0265L76.0088 8.57603L98.9298 67.679ZM98.6679 67.6986L75.6663 8.374L-26.3554 80.4129L98.6679 67.6986Z"
      stroke="white"
      stroke-miterlimit="10"
    />
  <path
      d="M347.056 26.7225C345.183 25.6266 342.952 25.3196 340.853 25.869C338.753 26.4185 336.958 27.7794 335.862 29.6524C334.766 31.5254 334.459 33.757 335.009 35.8563C335.558 37.9556 336.919 39.7506 338.792 40.8465C340.097 41.6148 341.589 42.0055 343.103 41.9753C344.617 41.945 346.092 41.4949 347.365 40.6752C348.638 39.8555 349.659 38.6983 350.312 37.3328C350.966 35.9672 351.228 34.4468 351.068 32.9412C350.944 31.66 350.514 30.4271 349.816 29.3454C349.119 28.2636 348.172 27.3643 347.056 26.7225V26.7225Z"
      fill="white"
    />
  <path
      d="M254.327 59.9006C253.793 59.588 253.174 59.4536 252.559 59.5172C251.792 59.5966 251.088 59.9764 250.601 60.5735C250.114 61.1706 249.883 61.9365 249.959 62.7034C250.005 63.1586 250.158 63.5965 250.405 63.9815C250.652 64.3665 250.987 64.6878 251.381 64.9191C251.914 65.2303 252.531 65.3659 253.145 65.3067C253.756 65.245 254.332 64.9918 254.79 64.5832C255.248 64.1746 255.565 63.6316 255.696 63.0318C255.827 62.432 255.765 61.8062 255.519 61.2438C255.273 60.6814 254.855 60.2113 254.326 59.9006H254.327Z"
      fill="white"
    />
  <path
      d="M301.155 82.1809C299.657 81.3029 297.919 80.922 296.192 81.0929C294.473 81.269 292.855 81.9839 291.567 83.1354C290.28 84.2868 289.389 85.8159 289.023 87.5039C288.656 89.192 288.833 90.9526 289.528 92.5341C290.222 94.1157 291.399 95.4371 292.89 96.3096C293.818 96.8757 294.85 97.2512 295.926 97.414C297.001 97.5768 298.098 97.5238 299.152 97.2579C300.207 96.992 301.198 96.5187 302.067 95.8655C302.937 95.2124 303.668 94.3925 304.217 93.4538C304.766 92.5151 305.122 91.4764 305.266 90.3983C305.409 89.3203 305.336 88.2245 305.051 87.175C304.766 86.1255 304.274 85.1433 303.605 84.2859C302.936 83.4284 302.103 82.7128 301.155 82.1809V82.1809Z"
      fill="white"
    />
  <path
      d="M150.861 58.9829C149.276 58.0605 147.427 57.6984 145.612 57.955C143.796 58.2117 142.12 59.0721 140.854 60.3976C139.587 61.7232 138.803 63.4366 138.629 65.2618C138.455 67.087 138.901 68.9177 139.894 70.4588C140.887 71.9998 142.371 73.1616 144.105 73.7567C145.839 74.3519 147.723 74.3458 149.453 73.7395C151.184 73.1332 152.66 71.962 153.643 70.4145C154.626 68.8671 155.06 67.0336 154.874 65.2095C154.747 63.9278 154.316 62.6948 153.618 61.6122C152.921 60.5296 151.975 59.6284 150.861 58.9829Z"
      fill="white"
    />
  <path
      d="M39.0404 29.9676C37.5393 29.089 35.7987 28.7078 34.0678 28.8786C31.9113 29.1055 29.9325 30.1772 28.5642 31.8592C27.1959 33.5413 26.5494 35.6968 26.7662 37.8543C26.9063 39.2476 27.4015 40.5817 28.2044 41.729C29.0073 42.8763 30.0912 43.7985 31.3523 44.4072C32.6134 45.016 34.0096 45.2911 35.4074 45.2061C36.8051 45.1212 38.1577 44.679 39.3358 43.922C40.5139 43.165 41.4781 42.1184 42.1362 40.8823C42.7943 39.6462 43.1242 38.262 43.0945 36.8619C43.0648 35.4619 42.6764 34.0929 41.9665 32.8858C41.2566 31.6788 40.2489 30.674 39.0397 29.9676H39.0404Z"
      fill="white"
    />
  <path
      d="M293.034 58.3628C292.382 57.9819 291.615 57.8463 290.872 57.9805C290.129 58.1146 289.458 58.5097 288.98 59.0946C288.57 59.5965 288.324 60.212 288.274 60.8583C288.225 61.5045 288.375 62.1504 288.704 62.709C289.032 63.2675 289.525 63.7118 290.114 63.982C290.703 64.2522 291.361 64.3353 291.998 64.2201C292.636 64.105 293.224 63.7971 293.681 63.3379C294.138 62.8787 294.444 62.2904 294.557 61.6521C294.67 61.0139 294.584 60.3564 294.312 59.7682C294.039 59.1801 293.593 58.6896 293.034 58.3628Z"
      fill="white"
    />
  <path
      d="M79.8713 1.13261C78.7562 0.475813 77.5014 0.0927453 76.2096 0.0148443C74.9178 -0.0630568 73.626 0.166444 72.4401 0.684481C71.2542 1.20252 70.2081 1.99434 69.3874 2.99499C68.5668 3.99565 67.9952 5.17661 67.7193 6.44098C67.4435 7.70535 67.4714 9.0171 67.8007 10.2686C68.13 11.5201 68.7514 12.6757 69.6138 13.6406C70.4762 14.6054 71.5551 15.3521 72.7619 15.8192C73.9688 16.2864 75.2692 16.4608 76.5564 16.328C78.7122 16.0959 80.6892 15.0225 82.0582 13.3411C83.4272 11.6597 84.0774 9.50615 83.8678 7.34811C83.7398 6.07011 83.3109 4.8406 82.6162 3.76026C81.9216 2.67991 80.9809 1.77945 79.8713 1.13261V1.13261Z"
      fill="white"
    />
  <path
      d="M203.172 101.845C202.056 101.187 200.801 100.803 199.508 100.724C198.215 100.646 196.923 100.875 195.736 101.393C194.549 101.911 193.502 102.703 192.681 103.705C191.86 104.706 191.288 105.888 191.012 107.153C190.736 108.418 190.764 109.731 191.094 110.983C191.424 112.235 192.046 113.391 192.909 114.357C193.773 115.322 194.853 116.068 196.061 116.535C197.269 117.002 198.57 117.175 199.858 117.041C201.576 116.868 203.194 116.156 204.482 115.007C205.77 113.858 206.662 112.331 207.029 110.645C207.397 108.959 207.222 107.199 206.529 105.619C205.836 104.038 204.661 102.717 203.172 101.845V101.845Z"
      fill="white"
    />
  <path
      d="M234.467 56.2535C233.351 55.5955 232.096 55.2115 230.803 55.1329C229.51 55.0543 228.217 55.2835 227.031 55.8016C225.844 56.3198 224.797 57.112 223.975 58.1134C223.154 59.1147 222.582 60.2966 222.306 61.562C222.03 62.8273 222.058 64.1401 222.388 65.3924C222.718 66.6447 223.341 67.8009 224.204 68.7661C225.068 69.7312 226.148 70.4777 227.356 70.9443C228.564 71.4109 229.866 71.5843 231.154 71.4503C232.871 71.2769 234.489 70.5648 235.777 69.4159C237.065 68.267 237.957 66.7402 238.324 65.054C238.692 63.3677 238.517 61.6083 237.824 60.0277C237.131 58.447 235.956 57.1259 234.467 56.2535Z"
      fill="white"
    />
  <path
      d="M312.25 10.4263C311.816 10.1705 311.308 10.0685 310.808 10.1369C310.309 10.2053 309.847 10.4401 309.498 10.8033C309.148 11.1664 308.931 11.6369 308.882 12.1385C308.833 12.6402 308.954 13.1438 309.226 13.5681C309.498 13.9924 309.905 14.3126 310.382 14.4769C310.859 14.6412 311.377 14.6401 311.852 14.4737C312.328 14.3073 312.734 13.9854 313.004 13.56C313.275 13.1345 313.394 12.6304 313.342 12.1289C313.308 11.779 313.191 11.4423 313.001 11.1464C312.811 10.8505 312.554 10.6037 312.25 10.4263V10.4263Z"
      fill="white"
    />
  <path
      d="M102.981 60.7477C101.11 59.6945 98.9004 59.4183 96.828 59.9788C94.7555 60.5393 92.9863 61.8915 91.9014 63.7441C90.8165 65.5967 90.5028 67.8013 91.028 69.883C91.5532 71.9646 92.8752 73.7566 94.7091 74.8728C95.6373 75.4378 96.6688 75.8123 97.7432 75.9745C98.8177 76.1366 99.9137 76.0833 100.967 75.8174C102.021 75.5516 103.011 75.0786 103.88 74.4262C104.749 73.7737 105.479 72.9547 106.028 72.017C106.578 71.0793 106.935 70.0416 107.078 68.9646C107.222 67.8875 107.15 66.7925 106.867 65.7436C106.583 64.6946 106.093 63.7126 105.426 62.8549C104.759 61.9972 103.928 61.2808 102.981 60.7477V60.7477Z"
      fill="white"
    />
  </g>
  </svg>
