<svg
  width="375"
  height="118"
  viewBox="0 0 375 118"
  fill="none"
  xmlns="http://www.w3.org/2000/svg"
>
    <path
    d="M354.056 26.7225C352.183 25.6266 349.952 25.3196 347.853 25.869C345.753 26.4185 343.958 27.7794 342.862 29.6524C341.766 31.5254 341.459 33.757 342.009 35.8563C342.558 37.9556 343.919 39.7506 345.792 40.8465C347.097 41.6148 348.589 42.0055 350.103 41.9753C351.617 41.945 353.092 41.4949 354.365 40.6752C355.638 39.8555 356.659 38.6983 357.312 37.3328C357.966 35.9672 358.228 34.4468 358.068 32.9412C357.944 31.66 357.514 30.4271 356.816 29.3454C356.119 28.2636 355.172 27.3643 354.056 26.7225V26.7225Z"
    fill="white"
  />
    <path
    d="M261.327 59.9006C260.793 59.588 260.174 59.4536 259.559 59.5172C258.792 59.5966 258.088 59.9764 257.601 60.5735C257.114 61.1706 256.883 61.9365 256.959 62.7034C257.005 63.1586 257.158 63.5965 257.405 63.9815C257.652 64.3665 257.987 64.6878 258.381 64.9191C258.914 65.2303 259.531 65.3659 260.145 65.3067C260.756 65.245 261.332 64.9918 261.79 64.5832C262.248 64.1746 262.565 63.6316 262.696 63.0318C262.827 62.432 262.765 61.8062 262.519 61.2438C262.273 60.6814 261.855 60.2113 261.326 59.9006H261.327Z"
    fill="white"
  />
    <path
    d="M308.155 82.1809C306.657 81.3029 304.919 80.922 303.192 81.0929C301.473 81.269 299.855 81.9839 298.567 83.1354C297.28 84.2868 296.389 85.8159 296.023 87.5039C295.656 89.192 295.833 90.9526 296.528 92.5341C297.222 94.1157 298.399 95.4371 299.89 96.3096C300.818 96.8757 301.85 97.2512 302.926 97.414C304.001 97.5768 305.098 97.5238 306.152 97.2579C307.207 96.992 308.198 96.5187 309.067 95.8655C309.937 95.2124 310.668 94.3925 311.217 93.4538C311.766 92.5151 312.122 91.4764 312.266 90.3983C312.409 89.3203 312.336 88.2245 312.051 87.175C311.766 86.1255 311.274 85.1433 310.605 84.2859C309.936 83.4284 309.103 82.7128 308.155 82.1809V82.1809Z"
    fill="white"
  />
    <path
    d="M157.861 58.9829C156.276 58.0605 154.427 57.6984 152.612 57.955C150.796 58.2117 149.12 59.0721 147.854 60.3976C146.587 61.7232 145.803 63.4366 145.629 65.2618C145.455 67.087 145.901 68.9177 146.894 70.4588C147.887 71.9998 149.371 73.1616 151.105 73.7567C152.839 74.3519 154.723 74.3458 156.453 73.7395C158.184 73.1332 159.66 71.962 160.643 70.4145C161.626 68.8671 162.06 67.0336 161.874 65.2095C161.747 63.9278 161.316 62.6948 160.618 61.6122C159.921 60.5296 158.975 59.6284 157.861 58.9829Z"
    fill="white"
  />
    <path
    d="M46.0404 29.9676C44.5393 29.089 42.7987 28.7078 41.0678 28.8786C38.9113 29.1055 36.9325 30.1772 35.5642 31.8592C34.1959 33.5413 33.5494 35.6968 33.7662 37.8543C33.9063 39.2476 34.4015 40.5817 35.2044 41.729C36.0073 42.8763 37.0912 43.7985 38.3523 44.4072C39.6134 45.016 41.0096 45.2911 42.4074 45.2061C43.8051 45.1212 45.1577 44.679 46.3358 43.922C47.5139 43.165 48.4781 42.1184 49.1362 40.8823C49.7943 39.6462 50.1242 38.262 50.0945 36.8619C50.0648 35.4619 49.6764 34.0929 48.9665 32.8858C48.2566 31.6788 47.2489 30.674 46.0397 29.9676H46.0404Z"
    fill="white"
  />
    <path
    d="M300.034 58.3628C299.382 57.9819 298.615 57.8463 297.872 57.9805C297.129 58.1146 296.458 58.5097 295.98 59.0946C295.57 59.5965 295.324 60.212 295.274 60.8583C295.225 61.5045 295.375 62.1504 295.704 62.709C296.032 63.2675 296.525 63.7118 297.114 63.982C297.703 64.2522 298.361 64.3353 298.998 64.2201C299.636 64.105 300.224 63.7971 300.681 63.3379C301.138 62.8787 301.444 62.2904 301.557 61.6521C301.67 61.0139 301.584 60.3564 301.312 59.7682C301.039 59.1801 300.593 58.6896 300.034 58.3628Z"
    fill="white"
  />
    <path
    d="M86.8713 1.13261C85.7562 0.475813 84.5014 0.0927453 83.2096 0.0148443C81.9178 -0.0630568 80.626 0.166444 79.4401 0.684481C78.2542 1.20252 77.2081 1.99434 76.3874 2.99499C75.5668 3.99565 74.9952 5.17661 74.7193 6.44098C74.4435 7.70535 74.4714 9.0171 74.8007 10.2686C75.13 11.5201 75.7514 12.6757 76.6138 13.6406C77.4762 14.6054 78.5551 15.3521 79.7619 15.8192C80.9688 16.2864 82.2692 16.4608 83.5564 16.328C85.7122 16.0959 87.6892 15.0225 89.0582 13.3411C90.4272 11.6597 91.0774 9.50615 90.8678 7.34811C90.7398 6.07011 90.3109 4.8406 89.6162 3.76026C88.9216 2.67991 87.9809 1.77945 86.8713 1.13261V1.13261Z"
    fill="white"
  />
    <path
    d="M210.172 101.845C209.056 101.187 207.801 100.803 206.508 100.724C205.215 100.646 203.923 100.875 202.736 101.393C201.549 101.911 200.502 102.703 199.681 103.705C198.86 104.706 198.288 105.888 198.012 107.153C197.736 108.418 197.764 109.731 198.094 110.983C198.424 112.235 199.046 113.391 199.909 114.357C200.773 115.322 201.853 116.068 203.061 116.535C204.269 117.002 205.57 117.175 206.858 117.041C208.576 116.868 210.194 116.156 211.482 115.007C212.77 113.858 213.662 112.331 214.029 110.645C214.397 108.959 214.222 107.199 213.529 105.619C212.836 104.038 211.661 102.717 210.172 101.845V101.845Z"
    fill="white"
  />
    <path
    d="M241.467 56.2535C240.351 55.5955 239.096 55.2115 237.803 55.1329C236.51 55.0543 235.217 55.2835 234.031 55.8016C232.844 56.3198 231.797 57.112 230.975 58.1134C230.154 59.1147 229.582 60.2966 229.306 61.562C229.03 62.8273 229.058 64.1401 229.388 65.3924C229.718 66.6447 230.341 67.8009 231.204 68.7661C232.068 69.7312 233.148 70.4777 234.356 70.9443C235.564 71.4109 236.866 71.5843 238.154 71.4503C239.871 71.2769 241.489 70.5648 242.777 69.4159C244.065 68.267 244.957 66.7402 245.324 65.054C245.692 63.3677 245.517 61.6083 244.824 60.0277C244.131 58.447 242.956 57.1259 241.467 56.2535Z"
    fill="white"
  />
    <path
    d="M319.25 10.4263C318.816 10.1705 318.308 10.0685 317.808 10.1369C317.309 10.2053 316.847 10.4401 316.498 10.8033C316.148 11.1664 315.931 11.6369 315.882 12.1385C315.833 12.6402 315.954 13.1438 316.226 13.5681C316.498 13.9924 316.905 14.3126 317.382 14.4769C317.859 14.6412 318.377 14.6401 318.852 14.4737C319.328 14.3073 319.734 13.9854 320.004 13.56C320.275 13.1345 320.394 12.6304 320.342 12.1289C320.308 11.779 320.191 11.4423 320.001 11.1464C319.811 10.8505 319.554 10.6037 319.25 10.4263V10.4263Z"
    fill="white"
  />
    <path
    d="M109.981 60.7477C108.11 59.6945 105.9 59.4183 103.828 59.9788C101.756 60.5393 99.9863 61.8915 98.9014 63.7441C97.8165 65.5967 97.5028 67.8013 98.028 69.883C98.5532 71.9646 99.8752 73.7566 101.709 74.8728C102.637 75.4378 103.669 75.8123 104.743 75.9745C105.818 76.1366 106.914 76.0833 107.967 75.8174C109.021 75.5516 110.011 75.0786 110.88 74.4262C111.749 73.7737 112.479 72.9547 113.028 72.017C113.578 71.0793 113.935 70.0416 114.078 68.9646C114.222 67.8875 114.15 66.7925 113.867 65.7436C113.583 64.6946 113.093 63.7126 112.426 62.8549C111.759 61.9972 110.928 61.2808 109.981 60.7477V60.7477Z"
    fill="white"
  />
    </svg>
